<svg width="200" height="200" viewBox="0 0 200 200" fill="none" xmlns="http://www.w3.org/2000/svg">
<circle cx="100" cy="100" r="100" fill="#111D5E" fill-opacity="0.1"/>
<g clip-path="url(#clip0)">
<path d="M127.652 120.951L116.941 110.242C116.458 109.759 115.803 109.491 115.115 109.491H113.364C116.329 105.699 118.091 100.93 118.091 95.7416C118.091 83.3999 108.089 73.4 95.7459 73.4C83.4031 73.4 73.4 83.3999 73.4 95.7416C73.4 108.083 83.402 118.083 95.7459 118.083C100.934 118.083 105.705 116.321 109.497 113.357V115.108C109.497 115.795 109.766 116.45 110.249 116.934L120.96 127.643C121.97 128.652 123.603 128.652 124.602 127.643L127.642 124.603C128.651 123.593 128.651 121.961 127.652 120.951ZM95.7459 111.208C87.2016 111.208 80.2771 104.297 80.2771 95.7416C80.2771 87.1983 87.1897 80.275 95.7459 80.275C104.29 80.275 111.215 87.1865 111.215 95.7416C111.215 104.285 104.302 111.208 95.7459 111.208ZM98.6581 94.8221L93.823 93.3719C93.2687 93.2054 92.881 92.6435 92.881 92.0044C92.881 91.2234 93.4503 90.5875 94.1485 90.5875H97.1682C97.658 90.5875 98.1307 90.7261 98.5453 90.9871C98.8934 91.2052 99.3359 91.1923 99.6335 90.9087L100.896 89.7045C101.275 89.3425 101.253 88.7151 100.834 88.4004C99.8569 87.6667 98.6774 87.2435 97.4646 87.1811V85.4312C97.4646 84.9564 97.0801 84.5719 96.6053 84.5719H94.8865C94.4117 84.5719 94.0271 84.9564 94.0271 85.4312V87.1629C91.4888 87.2306 89.4424 89.3704 89.4424 92.0044C89.4424 94.1496 90.8378 96.066 92.8348 96.6654L97.6698 98.1156C98.2241 98.2821 98.6119 98.8439 98.6119 99.4831C98.6119 100.264 98.0426 100.9 97.3443 100.9H94.3258C93.8359 100.9 93.3633 100.761 92.9486 100.5C92.6006 100.282 92.158 100.295 91.8604 100.579L90.5982 101.783C90.219 102.145 90.2405 102.772 90.6595 103.087C91.637 103.821 92.8165 104.244 94.0293 104.306V106.056C94.0293 106.531 94.4139 106.916 94.8887 106.916H96.6074C97.0822 106.916 97.4668 106.531 97.4668 106.056V104.325C100.005 104.257 102.052 102.118 102.052 99.4831C102.052 97.3379 100.656 95.4215 98.6581 94.8221Z" fill="#F37121"/>
</g>
<defs>
<clipPath id="clip0">
<rect width="55" height="55" fill="white" transform="translate(72.8 72.8)"/>
</clipPath>
</defs>
</svg>
