<svg width="200" height="200" viewBox="0 0 200 200" fill="none" xmlns="http://www.w3.org/2000/svg">
<circle cx="100" cy="100" r="100" fill="#111D5E" fill-opacity="0.1"/>
<g clip-path="url(#clip0)">
<path d="M79.4664 91.1204L99.4847 100.201C100.069 100.467 100.73 100.467 101.314 100.201L121.333 91.1204C122.755 90.475 122.755 88.3257 121.333 87.6803L101.315 78.5984C101.028 78.4672 100.716 78.3993 100.4 78.3993C100.085 78.3993 99.7727 78.4672 99.4856 78.5984L79.4664 87.6794C78.0442 88.3248 78.0442 90.475 79.4664 91.1204ZM121.333 98.7069L116.341 96.4442L102.45 102.741C101.801 103.036 101.111 103.185 100.4 103.185C99.6893 103.185 99 103.036 98.3495 102.741L84.4594 96.4442L79.4664 98.7069C78.0442 99.3515 78.0442 101.5 79.4664 102.144L99.4847 111.219C100.069 111.483 100.73 111.483 101.314 111.219L121.333 102.144C122.756 101.5 122.756 99.3515 121.333 98.7069V98.7069ZM121.333 109.69L116.36 107.436L102.45 113.741C101.801 114.036 101.111 114.185 100.4 114.185C99.6893 114.185 99 114.036 98.3495 113.741L84.4405 107.436L79.4664 109.69C78.0442 110.334 78.0442 112.483 79.4664 113.127L99.4847 122.201C100.069 122.466 100.73 122.466 101.314 122.201L121.333 113.127C122.756 112.483 122.756 110.334 121.333 109.69V109.69Z" fill="#F37121"/>
</g>
<defs>
<clipPath id="clip0">
<rect width="44" height="44" fill="white" transform="translate(78.4 78.4)"/>
</clipPath>
</defs>
</svg>
