<svg width="200" height="200" viewBox="0 0 200 200" fill="none" xmlns="http://www.w3.org/2000/svg">
<circle cx="100" cy="100" r="100" fill="#111D5E" fill-opacity="0.1"/>
<g clip-path="url(#clip0)">
<path d="M93.503 100.752C94.128 101.362 95.141 101.362 95.766 100.752L96.897 99.6473C97.522 99.0369 97.522 98.0477 96.897 97.4373L93.325 93.95L96.896 90.4617C97.521 89.8514 97.521 88.8621 96.896 88.2518L95.765 87.1473C95.14 86.5369 94.127 86.5369 93.502 87.1473L87.668 92.8445C87.043 93.4549 87.043 94.4442 87.668 95.0545L93.503 100.752V100.752ZM103.104 99.6483L104.235 100.753C104.86 101.363 105.873 101.363 106.498 100.753L112.332 95.0555C112.957 94.4451 112.957 93.4559 112.332 92.8455L106.498 87.1483C105.873 86.5379 104.86 86.5379 104.235 87.1483L103.104 88.2527C102.479 88.8631 102.479 89.8524 103.104 90.4627L106.675 93.95L103.104 97.4383C102.479 98.0486 102.479 99.0379 103.104 99.6483V99.6483ZM130.4 115.825H106.154C106.08 117.76 104.683 118.95 102.88 118.95H96.8C94.931 118.95 93.498 117.244 93.523 115.825H69.6C68.72 115.825 68 116.528 68 117.388V118.95C68 122.388 70.88 125.2 74.4 125.2H125.6C129.12 125.2 132 122.388 132 118.95V117.388C132 116.528 131.28 115.825 130.4 115.825ZM125.6 79.8875C125.6 77.3094 123.44 75.2 120.8 75.2H79.2C76.56 75.2 74.4 77.3094 74.4 79.8875V112.7H125.6V79.8875ZM119.2 106.45H80.8V81.45H119.2V106.45Z" fill="#F37121"/>
</g>
<defs>
<clipPath id="clip0">
<rect width="64" height="50" fill="white" transform="translate(68 75.2)"/>
</clipPath>
</defs>
</svg>
